<?xml version="1.0" encoding="UTF-8"?><svg id="Layer_1" xmlns="http://www.w3.org/2000/svg" viewBox="0 0 419.85 419.85"><defs><style>.cls-1{fill:#639;}.cls-2{fill:#fff;}</style></defs><path id="bg" class="cls-1" d="M0,0h352.67c37.1,0,67.18,30.08,67.18,67.18v285.5c0,37.1-30.08,67.18-67.18,67.18H67.18c-37.1,0-67.18-30.08-67.18-67.18V0Z"/><path id="fg" class="cls-2" d="M150.35,386.26c-26.97-.03-43.61-15.21-43.29-43.16v-70.7c0-14.17,4.15-24.94,12.44-32.31,14.9-14.35,49.47-15.23,64.06.22,8.99,7.93,12.39,24.13,11.58,39.25h-30.95c.24-5.94-.08-14.94-3.57-18.33-4.54-6.14-16.53-5.42-19.7.97-1.95,3.47-2.92,8.6-2.92,15.4v61.37c0,12.87,4.47,19.38,13.42,19.52,4.18,0,7.36-1.52,9.52-4.56,3.02-3.6,3.49-11.58,3.25-17.35h30.95c2.12,29.42-15.25,50.03-44.8,49.66h0ZM248.61,386.26c-29.88.41-43.25-20.85-42.42-49.66h29.22c-.81,12.56,3.51,24,13.85,23.21,4.61,0,7.86-1.44,9.74-4.34,3.57-5.29,4.24-20.55-.86-26.46-3.56-5.69-16.39-10.71-23.16-14.09-9.67-4.63-16.63-10.12-20.89-16.48-9.6-14.12-8.71-45.13,4.76-57.69,13.09-15.5,47.28-16.21,60.38-.32,8.08,8.19,11.61,24.31,10.93,39.14h-28.14c.24-6.1-.34-15.93-2.7-19.52-1.66-3.04-4.8-4.56-9.41-4.56-8.22,0-12.34,4.92-12.34,14.75.09,10.44,4.16,14.72,13.64,19.08,12.28,4.77,27.89,12.91,33.55,22.77,16.88,30.04,5.3,75.92-36.14,74.17h0ZM342.97,386.26c-29.88.41-43.25-20.85-42.42-49.66h29.22c-.81,12.56,3.51,24,13.85,23.21,4.61,0,7.86-1.44,9.74-4.34,3.57-5.29,4.24-20.55-.86-26.46-3.56-5.69-16.39-10.71-23.16-14.09-9.67-4.63-16.63-10.12-20.89-16.48-9.6-14.12-8.71-45.13,4.76-57.69,13.09-15.5,47.28-16.21,60.38-.32,8.08,8.19,11.61,24.31,10.93,39.14h-28.14c.24-6.1-.34-15.93-2.7-19.52-1.66-3.04-4.8-4.56-9.41-4.56-8.22,0-12.34,4.92-12.34,14.75.09,10.44,4.16,14.72,13.64,19.08,12.28,4.77,27.89,12.91,33.55,22.77,16.88,30.04,5.3,75.92-36.14,74.17h0Z"/></svg>