<svg xmlns="http://www.w3.org/2000/svg" xmlns:xlink="http://www.w3.org/1999/xlink" width="247.87" height="65.69" viewBox="0 0 247.87 65.69"><defs><radialGradient id="a" cx="213.84" cy="617.25" r="1.69" gradientTransform="matrix(0, 38.3, 44.12, 0, -26814.97, -7763.45)" gradientUnits="userSpaceOnUse"><stop offset="0" stop-color="#20c6b7"/><stop offset="1" stop-color="#4d9abf"/></radialGradient></defs><title>Netlify logo - Brandlogos.net</title><path d="M477.65,447.25l.21,3.72a11.53,11.53,0,0,1,9.34-4.31q10,0,10.2,11.5v21.25h-7.2V458.57a6.64,6.64,0,0,0-1.32-4.53q-1.32-1.47-4.32-1.47a6.94,6.94,0,0,0-6.49,4v22.89h-7.21V447.25h6.79ZM518.87,480a14.89,14.89,0,0,1-11.1-4.32q-4.26-4.32-4.26-11.52v-.89a19.33,19.33,0,0,1,1.85-8.6,14.14,14.14,0,0,1,5.2-5.9,13.75,13.75,0,0,1,7.47-2.11q6.55,0,10.12,4.19t3.57,11.86v2.91h-21a9.68,9.68,0,0,0,2.65,6.3,8,8,0,0,0,5.86,2.32,9.75,9.75,0,0,0,8.07-4l3.88,3.72a13,13,0,0,1-5.14,4.47,16.08,16.08,0,0,1-7.22,1.59ZM518,452.45a6.06,6.06,0,0,0-4.79,2.08,10.79,10.79,0,0,0-2.33,5.8h13.73v-.54a8.8,8.8,0,0,0-1.93-5.48A6,6,0,0,0,518,452.45Zm28.35-13v7.82H552v5.35h-5.66v18a4,4,0,0,0,.73,2.66,3.37,3.37,0,0,0,2.6.82,11.08,11.08,0,0,0,2.52-.3v5.59a17.67,17.67,0,0,1-4.74.68q-8.3,0-8.3-9.18V452.6h-5.28v-5.35h5.28v-7.82h7.21Zm18.83,40H558V433.75h7.21Zm15.51,0H573.5V447.25h7.21Zm-7.65-40.51a3.84,3.84,0,0,1,1.05-2.76,4,4,0,0,1,3-1.1,4,4,0,0,1,3,1.1,3.82,3.82,0,0,1,1.07,2.76,3.73,3.73,0,0,1-1.07,2.72,4.06,4.06,0,0,1-3,1.09,4,4,0,0,1-3-1.09,3.75,3.75,0,0,1-1.05-2.72Zm18,40.51V452.6h-4.89v-5.35h4.89V444.3q0-5.35,3-8.26t8.3-2.91a16.62,16.62,0,0,1,4,.53l-.18,5.65a14.16,14.16,0,0,0-2.76-.24q-5.16,0-5.16,5.32v2.85h6.52v5.35h-6.52v26.81h-7.2Zm30.22-10.34,6.52-21.82h7.68l-12.75,37q-2.94,8.11-10,8.11a12.88,12.88,0,0,1-3.47-.54v-5.59l1.36.09a7,7,0,0,0,4.11-1A6.6,6.6,0,0,0,617,482l1-2.76-11.27-32h7.77Z" transform="translate(-387.63 -426.7)" style="fill:#0e1e25"/><path d="M434.56,449.2h0l0,0a.19.19,0,0,1,0-.16l1.31-8,6.13,6.13-6.37,2.71h-.08l0,0A2.9,2.9,0,0,0,434.56,449.2Zm8.89-.49,6.55,6.55c1.36,1.36,2,2,2.29,2.83a3.19,3.19,0,0,1,.09.35l-15.66-6.63h0c-.06,0-.14-.05-.14-.12s.07-.09.14-.12h0Zm8.67,11.84A12.34,12.34,0,0,1,450,463l-7.39,7.39-9.56-2H433c-.08,0-.17,0-.17-.1a2.88,2.88,0,0,0-1.11-2,.17.17,0,0,1,0-.16.05.05,0,0,1,0,0l1.8-11v0c0-.08,0-.18.1-.18a2.93,2.93,0,0,0,2-1.12s0,0,0,0a.22.22,0,0,1,.17,0l16.32,6.9Zm-11.2,11.5-12.15,12.15,2.08-12.78v-.07s.06-.06.1-.07h0a3.13,3.13,0,0,0,1.18-.87.26.26,0,0,1,.15-.1h0l8.56,1.76ZM426.2,486.78l-1.37,1.37-15.14-21.88,0,0a.15.15,0,0,1,0-.1.11.11,0,0,1,0-.07l0,0,.13-.21,0-.06h0a.24.24,0,0,1,.09-.1.2.2,0,0,1,.12,0l16.78,3.46a.28.28,0,0,1,.13.06.12.12,0,0,1,0,.07,3,3,0,0,0,1.74,2s0,.08,0,.13l0,.08C428.5,472.74,426.69,483.79,426.2,486.78Zm-2.86,2.86a6.36,6.36,0,0,1-2.28,1.74,3.38,3.38,0,0,1-2,0c-.79-.25-1.47-.93-2.83-2.29L401,473.88l4-6.16a.25.25,0,0,1,.07-.08.18.18,0,0,1,.15,0,4.12,4.12,0,0,0,2.77-.14s.09,0,.13,0l0,.05,15.22,22.08Zm-23.82-17.22L396,468.93l6.89-2.94H403c.06,0,.09.06.12.11l.22.31,0,0s0,.06,0,.08l-3.8,5.91Zm-5-5L390.07,463c-.75-.75-1.3-1.3-1.67-1.76L401.82,464h.05c.08,0,.17,0,.17.11s-.1.12-.18.16l0,0Zm-6.86-8.45a3.38,3.38,0,0,1,.15-.84c.25-.79.93-1.47,2.29-2.83l5.65-5.65q3.9,5.66,7.82,11.31c0,.06.1.13,0,.18a4.69,4.69,0,0,0-.67.89.27.27,0,0,1-.08.1.09.09,0,0,1-.07,0h0l-15.13-3.17Zm9.6-10.83,7.59-7.59,5.64,2.39,3.87,1.64a.19.19,0,0,1,.12.09.17.17,0,0,1,0,.1,3.39,3.39,0,0,0,.88,3.09c.05.05,0,.12,0,.19l0,0L407.55,460a.23.23,0,0,1-.07.08.2.2,0,0,1-.15,0,3.85,3.85,0,0,0-.92-.13,5.06,5.06,0,0,0-.88.11h0a.11.11,0,0,1-.09,0l-.08-.09-8.13-11.86Zm9.13-9.13,9.83-9.83c1.36-1.36,2-2,2.83-2.29a3.38,3.38,0,0,1,2,0c.79.25,1.47.93,2.83,2.29l2.13,2.13-7,10.83a.26.26,0,0,1-.07.08.18.18,0,0,1-.15,0,3.55,3.55,0,0,0-3.25.63s-.11,0-.17,0C414.48,442.41,407.38,439.41,406.36,439Zm21.15-6.22,6.46,6.46-1.56,9.63v0a.23.23,0,0,1,0,.06s-.05,0-.08.05a3.09,3.09,0,0,0-.93.46l0,0a.11.11,0,0,1-.07,0h-.07l-9.84-4.18h0c-.06,0-.14-.06-.14-.12a3.72,3.72,0,0,0-.52-1.55c0-.08-.1-.16-.06-.24Zm-6.65,14.55,9.22,3.91c.05,0,.11,0,.13.1a.18.18,0,0,1,0,.1,2.29,2.29,0,0,0-.05.44v.26c0,.06-.07.09-.13.12h0c-1.46.62-20.51,8.75-20.54,8.75a.11.11,0,0,1-.09,0c-.05-.05,0-.12,0-.19l0,0L417,449v0c0-.07.09-.15.18-.15h.08a3.53,3.53,0,0,0,.48,0,3.42,3.42,0,0,0,2.86-1.52l.06-.07A.17.17,0,0,1,420.86,447.32ZM410.3,462.85,431.06,454a.09.09,0,0,1,.06,0,2.81,2.81,0,0,0,.3.26l0,0s.08.05.09.09a.17.17,0,0,1,0,0l-1.78,10.93v0c0,.08,0,.18-.1.18a2.92,2.92,0,0,0-2.32,1.43h0a.24.24,0,0,1-.08.1.19.19,0,0,1-.12,0l-16.56-3.42S410.32,462.85,410.3,462.85Z" transform="translate(-387.63 -426.7)" style="fill:url(#a)"/></svg>